<?xml version="1.0" standalone="no"?><!DOCTYPE svg PUBLIC "-//W3C//DTD SVG 1.1//EN" "http://www.w3.org/Graphics/SVG/1.1/DTD/svg11.dtd"><svg t="1732675948502" class="icon" viewBox="0 0 1024 1024" version="1.1" xmlns="http://www.w3.org/2000/svg" p-id="8622" xmlns:xlink="http://www.w3.org/1999/xlink" width="200" height="200"><path d="M702.171429 0a43.885714 43.885714 0 0 1 43.885714 43.885714v43.885715h175.542857c56.5248 0 102.4 45.8752 102.4 102.4v731.428571a102.4 102.4 0 0 1-102.4 102.4h-819.2A102.4 102.4 0 0 1 0 921.6V190.171429C0 133.646629 45.8752 87.771429 102.4 87.771429h175.542857V43.885714a43.885714 43.885714 0 0 1 87.771429 0v43.885715h292.571428V43.885714A43.885714 43.885714 0 0 1 702.171429 0z m234.057142 438.857143H87.771429v482.742857c0 8.074971 6.5536 14.628571 14.628571 14.628571h819.2a14.628571 14.628571 0 0 0 14.628571-14.628571V438.857143zM482.742857 512A43.885714 43.885714 0 0 1 526.628571 555.885714v131.657143h131.657143a43.885714 43.885714 0 0 1 43.476115 37.917257L702.171429 731.428571a43.885714 43.885714 0 0 1-43.885715 43.885715H497.371429a58.514286 58.514286 0 0 1-58.514286-58.514286V555.885714a43.885714 43.885714 0 0 1 43.885714-43.885714zM277.942857 175.542857h-175.542857a14.628571 14.628571 0 0 0-14.628571 14.628572V351.085714H936.228571V190.171429a14.628571 14.628571 0 0 0-14.628571-14.628572h-175.542857v43.885714a43.885714 43.885714 0 1 1-87.771429 0V175.542857h-292.571428v43.885714a43.885714 43.885714 0 0 1-87.771429 0V175.542857z" p-id="8623"></path></svg>