<?xml version="1.0" standalone="no"?><!DOCTYPE svg PUBLIC "-//W3C//DTD SVG 1.1//EN" "http://www.w3.org/Graphics/SVG/1.1/DTD/svg11.dtd"><svg t="1732676100035" class="icon" viewBox="0 0 1024 1024" version="1.1" xmlns="http://www.w3.org/2000/svg" p-id="2352" xmlns:xlink="http://www.w3.org/1999/xlink" width="200" height="200"><path d="M157.536478 433.197696h551.342523v59.072413H157.536478v-59.072413z m0 157.526435h433.197696v59.072413H157.536478v-59.072413z m0-315.05287h295.362066v59.072413H157.536478v-59.072413zM70.601577 69.981119v825.300684h461.749362V964.849414H61.996695C27.813459 964.849414 0.010043 937.341361 0.010043 903.55194V61.100566C0.010043 27.4096 27.715005 0 61.996695 0h572.470756l0.433198 0.630106L905.787044 285.477282v282.897786h-70.808132V332.577686H568.34573V69.981119H70.601577z m568.650739 50.743203v141.951008h134.586648l-134.586648-141.970699zM955.998595 664.249595a38.456141 38.456141 0 0 1 52.948573-6.911473h0.196908v0.196908a36.624896 36.624896 0 0 1 7.08869 51.826198l-234.005519 300.087858a38.397069 38.397069 0 0 1-54.878272 5.316517l-163.03986-139.54873a36.46737 36.46737 0 0 1-3.66249-52.239704c13.507892-15.358827 37.373147-16.934092 53.145481-3.504963l132.716022 113.694704 209.510158-268.917315z" fill="#000000" p-id="2353"></path></svg>