<?xml version="1.0" standalone="no"?><!DOCTYPE svg PUBLIC "-//W3C//DTD SVG 1.1//EN" "http://www.w3.org/Graphics/SVG/1.1/DTD/svg11.dtd"><svg t="1732801803882" class="icon" viewBox="0 0 1024 1024" version="1.1" xmlns="http://www.w3.org/2000/svg" p-id="2747" xmlns:xlink="http://www.w3.org/1999/xlink" width="200" height="200"><path d="M824.62 1023.951H198.986a43.518 43.518 0 0 1-45.566-42.494l30.718-364.014c9.216-95.228 89.084-150.01 220.15-150.01h36.35l68.605-129.529h297.97l62.973 640.994a44.03 44.03 0 0 1-44.542 44.541z m-620.003-51.197h614.371l-57.853-583.14H539.449l-70.652 135.161H451.39a375.79 375.79 0 0 0-47.102-2.56c-72.7 0-161.273 17.92-169.464 102.395l-30.207 348.144zM802.093 0H293.189a17.407 17.407 0 0 0-16.895 17.407v33.79h-79.868a17.407 17.407 0 0 0-16.896 17.408v51.197a17.407 17.407 0 0 0 16.896 17.407h79.356v35.839a17.407 17.407 0 0 0 16.895 17.407h102.395l-81.404 153.593a38.91 38.91 0 0 0 15.36 51.197 36.35 36.35 0 0 0 18.43 4.608 37.886 37.886 0 0 0 33.279-20.479l102.395-189.943h65.533a17.407 17.407 0 0 0 0 6.656v66.557A17.407 17.407 0 0 0 563 280.05H725.81a17.407 17.407 0 0 0 16.895-17.407v-65.021a17.92 17.92 0 0 0 0-6.656h58.877a17.407 17.407 0 0 0 17.407-17.407V17.407A17.407 17.407 0 0 0 802.093 0z m41.982 981.457H179.53l30.207-249.332h592.356z" fill="#1296DB" p-id="2748"></path></svg>