<?xml version="1.0" standalone="no"?><!DOCTYPE svg PUBLIC "-//W3C//DTD SVG 1.1//EN" "http://www.w3.org/Graphics/SVG/1.1/DTD/svg11.dtd"><svg t="1732800165739" class="icon" viewBox="0 0 1024 1024" version="1.1" xmlns="http://www.w3.org/2000/svg" p-id="5908" xmlns:xlink="http://www.w3.org/1999/xlink" width="200" height="200"><path d="M1024.084846 896.000549a127.999451 127.999451 0 1 1-153.599342-125.439463V716.801317a127.999451 127.999451 0 0 0-255.998903 0v127.999451a179.199232 179.199232 0 0 1-358.398464 0V635.320523a76.580243 76.580243 0 0 1-51.126638-72.118548c0.146285-3.145129 0.438855-6.217116 0.950853-9.289103C121.505857 532.482107 81.716313 474.992067 51.289015 409.602633c-32.475289-69.924272-52.808917-215.185363-51.199781-307.198683 0-42.422675 34.376996-76.799671 76.799671-76.799671h58.294607a51.199781 51.199781 0 1 1 0 51.19978h-32.694717c-38.399835 0-50.90721 14.409081-51.19978 51.199781-0.731425 109.56753 13.750798 209.187675 51.19978 281.598793 26.697028 51.638636 67.876281 102.399561 179.199232 102.399561 110.518383 0 154.769622-44.251239 179.199232-102.399561 34.742708-89.745901 52.150634-185.343206 51.199781-281.598793a46.445515 46.445515 0 0 0-51.199781-51.199781h-32.694717a51.199781 51.199781 0 1 1 0-51.19978h58.294608A80.603083 80.603083 0 0 1 563.286821 102.40395 729.962586 729.962586 0 0 1 512.08704 409.602633c-29.769015 67.437425-68.900276 124.634894-154.477052 145.261092 0.438855 2.779417 0.731425 5.558833 0.87771 8.33825a76.580243 76.580243 0 0 1-51.19978 72.118548v209.480245a127.999451 127.999451 0 0 0 255.998903 0V716.801317a179.199232 179.199232 0 0 1 358.398464 0v53.759769A127.999451 127.999451 0 0 1 1024.084846 896.000549z m-127.999452-76.799671a76.799671 76.799671 0 1 0 0 153.599341 76.799671 76.799671 0 0 0 0-153.599341z" fill="#003B6D" p-id="5909"></path></svg>