<?xml version="1.0" standalone="no"?><!DOCTYPE svg PUBLIC "-//W3C//DTD SVG 1.1//EN" "http://www.w3.org/Graphics/SVG/1.1/DTD/svg11.dtd"><svg t="1732799841458" class="icon" viewBox="0 0 1024 1024" version="1.1" xmlns="http://www.w3.org/2000/svg" p-id="4060" xmlns:xlink="http://www.w3.org/1999/xlink" width="200" height="200"><path d="M381.8 285.3c0.2-79.6-63.7-144.2-142.7-144.4C160.2 140.7 96 205 95.8 284.6c-0.1 37.4 14.3 73.4 40 100.3-6.9 28.9-10.3 58.5-10.3 88.3-0.1 131.9 67.7 254.5 179.1 323.8l28.7-118.1c-60.5-50.9-95.5-126.3-95.5-205.7 0-14.8 1.2-29.5 3.5-44.1 78-1.4 140.5-65.3 140.5-143.8zM504.4 205c47.6 0 94.4 12.8 135.5 37-6.3 16.6-9.6 34.2-9.7 51.9-0.2 79.5 63.6 144.1 142.5 144.4 78.9 0.3 143.1-64 143.3-143.4 0.2-79.5-63.5-144.1-142.4-144.3-18.1-0.1-36.1 3.4-53 10.1C611.8 84.9 471.8 71.4 350.7 125l65.6 95.2c28.3-10.2 58.1-15.3 88.1-15.3v0.1zM771 485.7c-4.2 95.2-58.3 181-142 225.2-35.9-70.6-121.7-98.5-191.8-62.4-70.1 36.1-97.8 122.6-61.9 193.2s121.7 98.5 191.8 62.4c29.9-15.4 53.4-41 66.4-72.2 149.9-54.6 249.9-198 250-358.6 0-8.4-0.3-16.9-1-25.3l-111.7 37.6 0.2 0.1z" fill="#2C2C2C" p-id="4061"></path></svg>