<?xml version="1.0" standalone="no"?><!DOCTYPE svg PUBLIC "-//W3C//DTD SVG 1.1//EN" "http://www.w3.org/Graphics/SVG/1.1/DTD/svg11.dtd"><svg t="1732676147927" class="icon" viewBox="0 0 1024 1024" version="1.1" xmlns="http://www.w3.org/2000/svg" p-id="3269" xmlns:xlink="http://www.w3.org/1999/xlink" width="200" height="200"><path d="M716.452084 475.417608c-19.237734 0-34.893974 15.553912-34.893975 34.893974v57.713201c0 19.237734 15.656241 34.893974 34.893975 34.893974s34.893974-15.656241 34.893974-34.893974v-57.713201c0-19.340062-15.656241-34.893974-34.893974-34.893974z" fill="#272636" p-id="3270"></path><path d="M810.287199 138.75727L451.626262 68.355351c-6.037374-1.22794-12.177076-1.841911-18.316779-1.84191-45.331468 0-80.839412 34.280004-80.839412 78.178874v17.60048l-98.132907-15.553912c-5.730389-0.920955-11.563106-1.330269-17.191166-1.330269-46.047767 0-80.839412 29.470571-80.839413 68.560008v588.592785c0 39.089437 34.791646 68.45768 80.839413 68.45768 5.62806 0 11.358449-0.409313 17.191166-1.330269l98.235235-15.656241V871.633057c0 43.796542 35.507944 78.178875 80.839413 78.178875 6.139702 0 12.279404-0.61397 18.21445-1.739583l358.763265-70.504247c37.452183-7.367643 65.797142-42.773259 65.797142-82.272009V221.02928c-0.204657-39.498751-28.447287-74.904367-65.89947-82.27201zM245.639253 815.045468c-19.135405 2.967523-34.280004-5.01409-34.280004-12.586389V213.763965c0-7.572299 15.246927-15.656241 34.177675-12.586389l106.830819 16.986509v579.894874L245.639253 815.045468z m575.187768-20.05636c0 12.995703-9.721195 25.889078-21.181973 28.140301l-358.763265 70.504247c-2.455881 0.511642-5.01409 0.716299-7.5723 0.716299-15.144599 0-25.684421-9.41421-25.684421-22.921555V144.589987c0-15.758569 15.144599-25.786749 33.256721-22.205256l358.865594 70.504247c11.460777 2.353553 21.181973 15.246927 21.181972 28.140302v573.959828z" fill="#272636" p-id="3271"></path></svg>