<?xml version="1.0" standalone="no"?><!DOCTYPE svg PUBLIC "-//W3C//DTD SVG 1.1//EN" "http://www.w3.org/Graphics/SVG/1.1/DTD/svg11.dtd"><svg t="1732676622798" class="icon" viewBox="0 0 1024 1024" version="1.1" xmlns="http://www.w3.org/2000/svg" p-id="4603" xmlns:xlink="http://www.w3.org/1999/xlink" width="200" height="200"><path d="M937.172 95.867l-425.283-79.421-417.132 79.421-37.177 5.562v513.461c0 30.792 7.843 61.416 23.62 91.859 15.691 30.535 36.227 60.016 61.618 88.668 25.387 28.605 54.273 55.718 86.599 81.257 32.373 25.586 65.287 48.367 98.844 68.343 33.549 20.017 65.877 36.663 97.024 49.892 31.148 13.231 58.487 22.297 82.067 27.247l9.971 1.844 10.886-1.844c22.984-4.95 49.735-14.017 80.249-27.247 30.517-13.229 61.934-29.876 94.306-49.892 32.333-19.976 64.203-42.758 95.671-68.343 31.416-25.532 59.392-52.651 83.876-81.257 24.483-28.652 44.255-58.132 59.396-88.668 15.097-30.443 22.671-61.067 22.671-91.859v-513.462l-27.207-5.561zM872.97 625.007c0 23.696-5.621 47.089-16.957 70.091-11.293 23.042-26.389 45.205-45.339 66.5-18.996 21.335-40.716 41.351-65.333 59.968-24.623 18.618-50.192 35.527-76.808 50.774-26.565 15.242-53.497 28.431-80.751 39.602-27.293 11.167-52.547 19.447-75.765 24.88v-461.113h-363.034v-323.945l358.008-61.988 5.031 1.003v384.929h360.947v149.298z" fill="#272636" p-id="4604"></path></svg>