<?xml version="1.0" standalone="no"?><!DOCTYPE svg PUBLIC "-//W3C//DTD SVG 1.1//EN" "http://www.w3.org/Graphics/SVG/1.1/DTD/svg11.dtd"><svg t="1732678252114" class="icon" viewBox="0 0 1054 1024" version="1.1" xmlns="http://www.w3.org/2000/svg" p-id="6043" xmlns:xlink="http://www.w3.org/1999/xlink" width="205.859375" height="200"><path d="M1021.505653 434.004596a909.883629 909.883629 0 0 0-67.276772-62.358673c-21.884364-18.589944-32.814781-39.38009-31.767625-69.418145 2.200202-73.289089-1.082452-146.036952 1.64721-219.326041 1.64721-44.839415-30.591047-76.018752-62.899899-80.395624a276.237154 276.237154 0 0 0-87.50216 2.188436c-44.851181 9.294972-56.887582 27.896682-60.170236 74.383307-1.094218 14.766063-3.270889 28.9909-6.012318 53.593162-24.061035-23.531575-40.474308-41.556761-59.064252-57.428808C573.558599 9.577351 499.187058 4.118026 425.933266 69.747587c-132.953396 118.681496-263.659528 240.645648-394.930416 361.515581-26.802463 25.155253-42.109753 80.40739-21.331373 107.75108 15.872047 20.77838 44.851181 33.908999 70.0182 45.392407 17.495726 8.236051 24.602261 16.954499 24.602262 36.097435 1.094218 95.71468 3.835647 191.970586 5.471091 287.685266 1.094218 72.194871 42.109753 114.857616 113.763397 115.398841q291.238533 0.835371 581.93584 0c78.748414 0 122.517143-45.88657 121.964151-126.341024-0.552992-76.018752-1.635444-151.496277-2.188437-227.515029-0.541226-63.452891 0.552992-60.170236 59.617245-84.231271 73.289089-30.591047 94.126298-91.337807 36.650427-151.496277zM598.725618 741.927015c-26.802463 41.015535-50.863498 83.125287-54.699145 133.988786-1.611913 24.649324-19.142936 34.461991-39.921316 28.9909-34.461991-8.74198-69.418145-18.589944-100.644545-35.003217-39.368324-20.77838-39.368324-27.34369-24.061035-70.594724-65.629562 19.142936-65.629562 19.142936-97.350124-42.121519-19.142936-36.650427-19.142936-37.73288 12.0364-63.441125 41.015535-33.908999 82.031069-68.37099 121.964152-103.374207 15.295523-13.118853 30.073352-14.766063 45.88657-3.282654 43.215737 31.179336 86.419708 62.358673 129.082452 94.620461 27.884916 20.790146 27.34369 30.085118 7.659528 60.170236z m136.177222-311.793363c-33.356007 37.744646-66.170788 76.571744-101.18577 113.210405-13.648313 14.836658-18.589944 25.743543-9.294972 47.074915 11.495174 27.896682 20.790146 59.617244-3.823881 92.94972-56.875816-43.215737-111.574961-84.784263-168.450777-127.435242 24.602261-24.072801 53.051935-34.461991 76.571744-26.802464 50.863498 16.954499 72.194871-16.954499 97.89135-46.486625 24.614027-27.896682 49.228054-55.793363 74.383307-83.137053 10.38919-11.483408 23.531575-22.966817 38.827098-9.294972 16.954499 14.766063 5.459325 27.896682-4.929864 39.921316z m0 0" fill="#6dc442" p-id="6044"></path></svg>