<?xml version="1.0" standalone="no"?><!DOCTYPE svg PUBLIC "-//W3C//DTD SVG 1.1//EN" "http://www.w3.org/Graphics/SVG/1.1/DTD/svg11.dtd"><svg t="1732801626888" class="icon" viewBox="0 0 1024 1024" version="1.1" xmlns="http://www.w3.org/2000/svg" p-id="2600" xmlns:xlink="http://www.w3.org/1999/xlink" width="200" height="200"><path d="M166.51362608 435.77890134s-59.65232355 288.31956385 80.77918814 350.45740089 298.26161778 115.57637689 466.65515615-43.49648592 127.38256592-259.11478045 127.38256593-259.11478045L166.51362608 435.77890134z" fill="#f7841e" p-id="2601"></path><path d="M991.08272355 481.76090075c-41.01097245-45.98199941-229.90999703-51.57440475-271.54234785-53.43853986-72.07989097-2.48551348-168.39353837-3.10689185-279.62026667-1.24275673-93.20675555 1.86413511-193.24867318 4.97102697-273.40648295 8.69929718-129.86807941 6.2137837-136.70324148 10.5634323-142.91702519 14.29170252-8.07791882 4.97102697-13.04894578 13.67032415-13.04894578 22.9909997 0.62137837 99.42053925 22.36962133 194.49142992 62.13783704 275.27061808 43.49648592 88.23572859 106.25570133 152.85907911 182.06386252 188.27764622 67.73024237 31.69029689 143.53840355 37.90408059 195.73418666 37.90408059h0.62137837c66.48748563 0 132.35359289-11.18481067 179.57834905-30.44754014 80.15780978-32.93305363 147.26667378-97.55640415 193.87005155-187.65626786 2.48551348-4.97102697 4.97102697-9.94205392 7.45654045-15.53445926 3.10689185 0.62137837 6.83516208 1.24275675 10.56343228 1.24275674 33.554432 0 81.40056652-29.82616178 116.19775527-57.78818844 27.96202667-22.9909997 58.40956682-75.18678282 58.40956681-116.19775526-0.62137837-29.82616178 0-56.5454317-26.09789156-86.37159348z m-195.1128083 219.34656474c-4.97102697 11.18481067-9.94205392 21.74824297-14.91308088 32.31167526-41.01097245 79.53643141-100.04191763 136.08186311-169.01491674 164.66526814-41.63235082 17.39859437-100.663296 26.71926992-160.93699793 27.3406483H449.86216297c-65.86610725 0-128.0039443-11.80618903-174.60732208-33.554432-65.24472889-30.44754015-119.92602548-87.61435022-158.45148444-165.28664652-33.554432-67.73024237-53.43853985-150.37356563-56.5454317-233.63826725 51.57440475-4.97102697 206.91899733-13.04894578 383.3904545-15.53445926 204.43348385-3.10689185 346.1077523 1.24275675 397.06077867 6.83516207 4.34964859 32.93305363-18.64135111 169.01491675-44.73924267 216.86105126z m57.16681008-10.5634323c22.9909997-64.00197215 36.03994548-134.83910637 37.28270222-206.29761896 3.10689185 0 6.83516208-0.62137837 11.18481067-0.62137837 14.29170252 0 61.51645867 21.12686459 61.51645867 77.05091793 0 77.6722963-93.82813392 124.27567408-109.98397156 129.8680794zM203.7963283 89.67114904s23.61237808 1.24275675 38.52545895 19.26272948c9.94205392 12.42756741 14.29170252 31.69029689 13.04894578 55.92405334-1.86413511 21.74824297-10.5634323 31.06891852-22.9909997 44.1178643-12.42756741 13.04894578-27.96202667 29.20478341-31.69029688 59.03094518-3.10689185 22.9909997 1.86413511 50.331648 15.53445925 86.37159348 5.59240533 14.29170252 21.12686459 21.12686459 34.17581038 14.29170252l2.48551347-1.24275675c9.94205392-4.97102697 14.29170252-18.01997275 9.94205393-29.2047834-11.18481067-27.96202667-15.53445925-49.08889125-13.67032415-62.7592154 1.24275675-10.5634323 6.83516208-16.777216 17.39859437-27.96202667 14.29170252-14.91308089 34.17581037-36.03994548 37.28270222-78.29367467 3.10689185-39.7682157-5.59240533-72.07989097-25.47651317-95.69226903-16.777216-20.50548622-37.90408059-29.20478341-52.8171615-33.554432-11.18481067-3.10689185-22.9909997 3.10689185-27.96202666 14.29170251l-6.2137837 13.67032416c-4.34964859 10.5634323 2.48551348 21.74824297 12.42756741 21.74824295z m257.8720237 106.87707971c-13.67032415 15.53445925-30.44754015 34.17581037-30.44754015 65.24472889 0 24.85513482 11.18481067 52.81716148 35.41856712 89.47848533 7.45654045 10.5634323 21.12686459 12.42756741 30.44754014 4.34964859l3.10689186-2.48551347c9.32067555-8.69929718 11.18481067-23.61237808 4.34964858-34.79718875-20.50548622-30.44754015-24.85513482-47.22475615-24.8551348-55.92405333 0-8.69929718 4.34964859-14.91308089 16.777216-28.58340504 14.91308089-16.777216 35.41856711-39.14683733 37.90408058-79.53643141 2.48551348-34.17581037-0.62137837-82.02194489-29.82616178-116.81913363l-0.62137837-0.62137837c-16.15583763-18.64135111-44.73924267-10.5634323-50.331648 14.29170253-1.24275675 4.97102697 0.62137837 9.94205392 4.97102697 13.04894577 3.10689185 1.86413511 6.83516208 4.97102697 9.94205393 9.32067556 13.67032415 16.15583763 19.88410785 42.87510755 17.39859437 77.05091792-1.24275675 20.50548622-11.18481067 31.69029689-24.23375645 45.98199941z m247.92996978 160.31561956c10.5634323-8.07791882 13.67032415-22.9909997 6.83516207-34.79718875-14.91308089-27.96202667-20.50548622-49.71026963-16.777216-65.86610725 3.72827022-16.15583763 18.01997275-27.96202667 32.93305363-41.01097245 16.777216-14.29170252 36.03994548-31.06891852 41.01097244-56.5454317 7.45654045-36.66132385 2.48551348-68.35162075-14.29170251-94.4495123-14.29170252-22.36962133-34.17581037-35.41856711-50.95302638-42.87510755-14.29170252-6.83516208-31.06891852 3.10689185-33.554432 20.50548621-1.86413511 11.80618903 4.34964859 23.61237808 14.91308089 28.58340504 9.94205392 4.34964859 21.74824297 12.42756741 29.82616178 24.23375645 8.69929718 13.67032415 10.5634323 31.06891852 6.83516208 53.43853985-1.24275675 7.45654045-12.42756741 16.777216-23.61237808 26.09789156-18.64135111 16.15583763-41.63235082 35.41856711-49.71026962 68.9729991-7.45654045 30.44754015 0 65.24472889 21.74824295 106.25570134 7.45654045 12.42756741 22.9909997 16.15583763 34.79718875 7.45654045z" fill="#707070" p-id="2602"></path></svg>