<?xml version="1.0" standalone="no"?><!DOCTYPE svg PUBLIC "-//W3C//DTD SVG 1.1//EN" "http://www.w3.org/Graphics/SVG/1.1/DTD/svg11.dtd"><svg t="1732678160620" class="icon" viewBox="0 0 1024 1024" version="1.1" xmlns="http://www.w3.org/2000/svg" p-id="4511" xmlns:xlink="http://www.w3.org/1999/xlink" width="200" height="200"><path d="M485.54386 51.172418s-93.696697 88.067731-289.635886 88.067732V411.937965s51.070073 192.920016 289.635886 239.077538c238.565813-46.106349 289.738231-239.077537 289.738231-239.077538V139.188977C579.29173 139.24015 485.54386 51.172418 485.54386 51.172418z m144.869115 335.588718h-106.489802v113.244561H451.463029V386.761136h-106.438629V311.230647h106.438629v-108.997251h72.460144v113.193389h106.489802v71.334351z m285.439748 461.421693c-12.793105-8.392277-174.651463-146.813667-183.197256-159.402082a32.750348 32.750348 0 0 0-21.287726-8.392276H442.917236c-21.287726 0-42.626624 4.196138-42.626625 41.961382 0 25.17683 17.040415 46.157521 42.626625 50.35366 21.287726 4.196138 76.656282 8.392277 119.282906 12.588415 12.793105 0 0 8.392277 0 8.392276l-51.172418 33.517934H332.231295s-72.408972-54.498625-119.231734-88.067731c-76.758627-54.549798-106.540974 0-106.540974 0s-8.494621 16.784553 0 29.372968c42.626624 37.714072 191.691878 167.794359 200.237672 176.186635 8.494621 4.196138 17.040415 8.392277 25.586209 4.196138h306.676301c12.793105 0 29.83352 8.392277 38.379314 16.784553l59.615867 50.302487c25.586209 16.784553 38.379314 0 38.379313 0l136.323322-146.813667c4.247311 0 17.040415-12.588415 4.247311-20.980692z" fill="#327DFD" p-id="4512"></path></svg>