<?xml version="1.0" standalone="no"?><!DOCTYPE svg PUBLIC "-//W3C//DTD SVG 1.1//EN" "http://www.w3.org/Graphics/SVG/1.1/DTD/svg11.dtd"><svg t="1732676704565" class="icon" viewBox="0 0 1024 1024" version="1.1" xmlns="http://www.w3.org/2000/svg" p-id="3350" xmlns:xlink="http://www.w3.org/1999/xlink" width="200" height="200"><path d="M834.2 123.9l-34.4-11.2c-185.5-60.5-389.9-60.5-575.5 0l-34.4 11.2c-10.3 3.4-17.3 12.9-17.3 23.8v481.6c0 59.4 27.6 116.5 75.6 156.7l160.6 134.3c28.2 23.6 64.9 36.6 103.2 36.6s75-13 103.2-36.6L775.8 786c48-40.1 75.6-97.2 75.7-156.6V147.6c-0.1-10.8-7-20.4-17.3-23.7z m-32.8 505.4c-0.1 44.6-21.2 87.7-57.8 118.3L583.1 881.9c-39.9 33.4-102.4 33.4-142.3 0L280.2 747.6c-36.7-30.7-57.7-73.8-57.7-118.4V165.8l17.2-5.6c175.6-57.2 369-57.2 544.5 0l17.2 5.6v463.5z" fill="#2c2c2c" p-id="3351"></path><path d="M708.9 353.5H588.6v-69c67.3-3.9 107.9-10 110-10.3 13.6-2.1 23-14.8 21-28.5-2.1-13.6-14.8-23-28.5-21-0.6 0.1-62.6 9.3-159 12.2h-213c-13.8 0-25 11.2-25 25V704c0 13.8 11.2 25 25 25s25-11.2 25-25V287h189c1.8-0.1 3.6-0.1 5.4-0.2v66.7H417c-13.8 0-25 11.2-25 25s11.2 25 25 25h121.6V431h-98c-13.8 0-25 11.2-25 25v141.1c0 13.8 11.2 25 25 25s25-11.2 25-25V481h73v104.2l-112.5 91.6c-10.7 8.7-12.3 24.5-3.6 35.2 4.9 6.1 12.1 9.2 19.4 9.2 5.6 0 11.1-1.8 15.8-5.6l105.9-86.3 105.8 86.3c4.6 3.8 10.2 5.6 15.8 5.6 7.3 0 14.4-3.1 19.4-9.2 8.7-10.7 7.1-26.4-3.6-35.2L588.5 585V481H660v116.1c0 13.8 11.2 25 25 25s25-11.2 25-25V458.2v-1.1-1.1c0-13.8-11.2-25-25-25h-96.5v-27.4h120.3c13.8 0 25-11.2 25-25s-11.1-25.1-24.9-25.1z" fill="#2c2c2c" p-id="3352"></path></svg>