<?xml version="1.0" standalone="no"?><!DOCTYPE svg PUBLIC "-//W3C//DTD SVG 1.1//EN" "http://www.w3.org/Graphics/SVG/1.1/DTD/svg11.dtd"><svg t="1732676534963" class="icon" viewBox="0 0 1024 1024" version="1.1" xmlns="http://www.w3.org/2000/svg" p-id="10343" xmlns:xlink="http://www.w3.org/1999/xlink" width="200" height="200"><path d="M352 512a224 224 0 1 0-224-224 224 224 0 0 0 224 224z m0-384a160 160 0 1 1-160 160 160 160 0 0 1 160-160zM352 544a288 288 0 0 0-288 288v96a32 32 0 0 0 64 0v-96a224 224 0 0 1 448 0v96a32 32 0 0 0 64 0v-96a288 288 0 0 0-288-288zM592.64 536a179.84 179.84 0 1 0 57.92-327.68 32 32 0 1 0 13.76 64 115.84 115.84 0 1 1-37.12 211.2 32 32 0 0 0-44.16 9.92 32 32 0 0 0 9.6 42.56zM672 640a32 32 0 0 0 0 64 224 224 0 0 1 224 224 32 32 0 0 0 64 0 288 288 0 0 0-288-288z" fill="#182437" p-id="10344"></path></svg>