<?xml version="1.0" standalone="no"?><!DOCTYPE svg PUBLIC "-//W3C//DTD SVG 1.1//EN" "http://www.w3.org/Graphics/SVG/1.1/DTD/svg11.dtd"><svg t="1732676343914" class="icon" viewBox="0 0 1024 1024" version="1.1" xmlns="http://www.w3.org/2000/svg" p-id="3328" xmlns:xlink="http://www.w3.org/1999/xlink" width="200" height="200"><path d="M103.86173789 639.98031674c46.99714387-10.19778702 93.82331203-9.00378226 140.47567928 3.56647018 46.65236587 12.5857952 88.37045724 36.53229533 125.15427134 71.88613138 17.69246077 17.66278651 32.68322085 37.55532438 44.93978218 59.63098267 12.27210406 22.09402759 21.63762105 45.01749866 28.09513558 68.80715322 6.47447126 23.78965457 9.88409588 47.92549972 10.21474376 72.39058016 0.34477801 24.48062316-1.86942926 47.92408713-6.63131684 70.34734859-46.32171939 10.19778702-92.97408526 7.47913101-139.95568638-8.15455547-46.99855647-15.63368649-88.54425814-41.46798519-124.63710502-77.4817016-36.7852267-35.33829193-61.48628177-76.28628423-74.07207697-122.84539086C94.84099892 731.57246615 93.64699414 685.53335104 103.86173789 639.98031674L103.86173789 639.98031674zM920.12554455 639.98031674c10.22745991 45.5516217 9.03486911 91.59073543-3.5664702 138.14984345-12.60275193 46.55769405-36.95761639 87.50710032-73.05046188 122.84539086-17.70800352 17.6613739-38.48085504 32.44724621-62.31855182 44.35902954-23.83628418 11.89482798-49.04037542 21.4016464-75.59531562 28.53458539s-53.9746513 11.89482798-82.24217657 14.28283616c-28.26893788 2.35692269-56.01788285 2.87408898-83.26379165 1.52323865l-59.25511778 0L480.83365903 606.35460848c-39.50247012-4.08504912-76.27215409-14.95826062-110.32176804-32.63517865-26.57048434-13.59186753-50.92534742-30.57922956-73.04904928-50.9748036s-41.0440781-43.1480694-56.69330732-68.30411706c-15.66618595-25.14050491-27.93687741-52.34119669-36.7838141-81.56675072s-13.27676381-59.80337097-13.27676381-91.74899497c0-42.81883553 8.51628883-84.26986399 25.53332512-124.37004352 32.69876499 8.15455549 62.83713212 20.55241963 90.41227479 37.2091338 27.57655667 16.63975882 52.27761035 36.86294319 74.07207698 60.65259775 6.12828065-46.21291604 21.2758863-88.52730279 45.45836247-126.93043998 24.18106218-38.38759443 54.65007716-70.50419418 91.43388989-96.33708028 38.13466443 25.83288611 69.3101894 58.46806476 93.47712142 97.87727565 24.18106218 39.42475364 38.98389121 82.58836718 44.43533342 129.47529509 21.79446661-23.78965457 46.66790999-44.34207418 74.57511312-61.68975694 27.92133329-17.3151833 58.23209011-30.05923805 90.93226769-38.21379354 15.66618595 38.73237244 23.49009357 79.50797642 23.49009357 122.34235471 0 31.25324145-4.25885139 61.50041193-12.77372763 90.72737852-8.50215869 29.22696662-20.7573074 56.40929045-36.76827134 81.55120799-16.01237654 25.15604765-34.89884073 47.92549972-56.69330734 68.30411703-21.79446661 20.39557406-45.97552878 37.38293607-72.54742572 50.97339101l0 1.02302906c-19.07581058 9.52094855-38.65324335 17.15833773-58.73512627 22.94042779-20.08188292 5.78209005-41.04266549 9.34856026-62.83713211 10.71636595l0 274.23949866c8.18705495-27.87470367 20.78839427-54.55540395 37.80684316-80.0265567 17.03257904-25.50223825 36.76827136-49.1195045 59.2537052-70.86592752 17.70800352-17.6613739 37.96227475-33.31060313 60.79390056-46.90247205 22.79912636-13.57632478 46.47997755-24.46508044 70.9916876-32.62104851 24.52725279-8.13901274 49.38515342-13.24567692 74.57370052-15.28890847C872.79775283 633.86757882 896.978815 635.23538588 920.12554455 639.98031674L920.12554455 639.98031674z" fill="#2c2c2c" p-id="3329"></path></svg>