<?xml version="1.0" standalone="no"?><!DOCTYPE svg PUBLIC "-//W3C//DTD SVG 1.1//EN" "http://www.w3.org/Graphics/SVG/1.1/DTD/svg11.dtd"><svg t="1732800025150" class="icon" viewBox="0 0 1024 1024" version="1.1" xmlns="http://www.w3.org/2000/svg" p-id="11218" xmlns:xlink="http://www.w3.org/1999/xlink" width="200" height="200"><path d="M790.20544 760.82176c-25.8816-23.74144-61.05088-37.04832-97.69984-36.98688h-58.34752l187.40736-80.4608V472.64256c0-81.47968-38.38976-154.72128-99.62496-205.42976l51.73248-149.80096c-70.06208-22.76864-158.73536-36.43904-255.29856-36.43904-96.54784 0-185.31328 13.6704-255.22176 36.43904L314.752 267.2128c-61.12256 50.70336-99.58912 123.9808-99.58912 205.42976v170.7264l187.3664 80.45568H344.22272c-36.65408-0.06656-71.81824 13.25056-97.69984 36.992-25.9328 23.64928-40.48384 55.77728-40.42752 89.27232v104.78592h624.55808v-104.78592c0.03584-33.49504-14.52544-65.6128-40.448-89.2672z" fill="#D1D3D4" p-id="11219"></path><path d="M518.36928 195.40992c-167.4496 0-303.21664 124.09856-303.21664 277.23264v170.7264l303.21664 130.14016 303.19104-130.14016V472.64256c0-153.13408-135.74144-277.23264-303.19104-277.23264z" fill="#32AAD5" p-id="11220"></path><path d="M790.20544 760.82176c-25.8816-23.74144-61.05088-37.04832-97.69984-36.98688H344.22272c-36.65408-0.06656-71.81824 13.24544-97.69984 36.98688-25.9328 23.64928-40.48384 55.7824-40.42752 89.27232V954.88h624.55808v-104.79104c0.04096-33.48992-14.52544-65.6128-40.448-89.2672z" fill="#32AAD5" p-id="11221"></path><path d="M461.21984 631.6032h114.32448v144.4864H461.21984v-144.4864z" fill="#32AAD5" p-id="11222"></path><path d="M345.70752 502.87104c-0.30208 21.28896-19.42016 38.3232-42.69568 38.04672-22.85568-0.27136-41.31328-17.152-41.60512-38.04672 0.30208-21.28384 19.42016-38.31808 42.7008-38.0416 22.84544 0.27136 41.30304 17.14688 41.6 38.0416z m349.50656-9.9584c-0.02048 21.27872 18.83136 38.528 42.09664 38.54848h0.03584c23.27552 0 42.1376-17.25952 42.1376-38.53312 0-21.28384-18.8672-38.53312-42.1376-38.53312-23.26528 0-42.13248 17.23392-42.13248 38.50752v0.01024z" fill="#FFFFFF" p-id="11223"></path><path d="M747.85792 466.56c0 115.90144-102.74304 209.8688-229.48864 209.8688-126.78656 0-229.54496-93.96224-229.54496-209.8688 0-115.87584 102.74816-209.80736 229.54496-209.80736 126.7456 0 229.48864 93.93664 229.48864 209.80736z" fill="#FFFFFF" p-id="11224"></path><path d="M518.36928 195.40992c-159.04256 0-289.3568 111.95904-302.07488 254.34112 7.60832-0.36864 16.37376-0.75776 19.11296-1.13664 104.98048-15.55456 193.37728-57.56928 242.99008-109.21472 47.04768 30.75072 108.06784 55.47008 176.86016 68.95104 53.41184 10.52672 115.56352 31.14496 163.85536 29.84448-18.51392-136.86272-146.03264-242.78528-300.74368-242.78528z" fill="#32AAD5" p-id="11225"></path><path d="M325.40672 298.1632h385.8688l62.39744-180.75648c-70.06208-22.76352-158.73536-36.43904-255.29856-36.43904-96.54784 0-185.31328 13.67552-255.22176 36.43904l62.25408 180.75648z" fill="#32AAD5" p-id="11226"></path><path d="M430.59712 189.58336c-0.02048 44.32896 39.26528 80.27648 87.74656 80.29696 48.48128 0.02048 87.79776-35.90144 87.81824-80.22528v-0.06656c0.01536-44.32896-39.2704-80.27648-87.75168-80.29696-48.47616-0.01536-87.79264 35.90144-87.81312 80.2304v0.06144z" fill="#FFFFFF" p-id="11227"></path><path d="M565.89312 175.09376h-31.65184v-28.94848c-0.02048-2.01728-1.8176-3.6352-4.0192-3.63008H506.5216c-2.18624 0-3.96288 1.61792-3.968 3.61984v28.95872h-31.70816c-2.18624 0.01536-3.94752 1.62816-3.968 3.62496v21.70368c0 2.00192 1.82784 3.64544 3.968 3.64544h31.70816v28.95872c0 2.01728 1.75616 3.59424 3.968 3.59424h23.70048c2.18624 0.03072 3.98336-1.56672 4.0192-3.56864v-28.98432h31.65184c2.19648-0.00512 3.968-1.6384 3.96288-3.64544v-21.70368c0.01024-1.9968-1.75104-3.61984-3.92704-3.62496h-0.03584z" fill="#32AAD5" p-id="11228"></path><path d="M606.16192 723.82464l-87.78752 160.86016-87.77728-160.86016h175.5648z" fill="#FFFFFF" p-id="11229"></path></svg>