<?xml version="1.0" standalone="no"?><!DOCTYPE svg PUBLIC "-//W3C//DTD SVG 1.1//EN" "http://www.w3.org/Graphics/SVG/1.1/DTD/svg11.dtd"><svg t="1732678340677" class="icon" viewBox="0 0 1077 1024" version="1.1" xmlns="http://www.w3.org/2000/svg" p-id="6284" xmlns:xlink="http://www.w3.org/1999/xlink" width="210.3515625" height="200"><path d="M769.60064 0.021557L754.510431 1.099429a352.104868 352.104868 0 0 0-158.0879 43.833464 124.673867 124.673867 0 0 1-118.925215 0A344.200473 344.200473 0 0 0 303.600626 0.021557C107.787204 0.021557 0 188.649165 0 364.701599c0 241.443338 170.303783 459.892072 505.162698 650.316134a71.858136 71.858136 0 0 0 67.546648 0c241.084047-136.88975 395.21975-287.432545 467.077887-453.42484A516.300709 516.300709 0 0 0 1077.872045 363.264437C1077.872045 184.337677 962.180445 0.021557 769.60064 0.021557z m-17.605243 781.097942h-44.911336v-128.985354a16.886662 16.886662 0 1 0-33.414033 0v5.74865a27.880957 27.880957 0 0 1-55.690056-2.155744 65.031613 65.031613 0 0 1-7.185813-7.185813l-14.371628-14.371628v146.949889H303.959917a224.556676 224.556676 0 0 1 0-38.084812c0-111.380111 63.953741-246.114117 156.650737-301.804173a38.084812 38.084812 0 0 1 14.012336-7.545104 40.240556 40.240556 0 0 1 38.444103 9.700849l151.261377 150.542795v1.796454a57.127218 57.127218 0 0 1 23.713185-4.670779 60.720125 60.720125 0 0 1 61.079416 61.438706z m10.419429-445.520445l-42.037009 11.497302a97.727065 97.727065 0 1 1-188.627608 50.300695l-35.929068 9.341558a15.449499 15.449499 0 0 1-12.575174 0 15.80879 15.80879 0 0 1-7.904395-10.060139c-2.155744-8.622976 16.168081-32.695452 25.150347-35.929068h5.389361l9.341557-45.989207a97.727065 97.727065 0 0 1 10.778721-28.024674c15.090209-23.353894 134.015424-48.504242 149.464923-39.881265a153.776412 153.776412 0 0 1 27.306092 23.713185 14.730918 14.730918 0 0 0-2.874325-3.592907l3.233616 3.592907 26.58751 30.180417h5.389361c8.622976-2.155744 35.929068 9.341558 39.162684 18.323825a16.527371 16.527371 0 0 1-11.856593 16.527371z" fill="#F46767" p-id="6285"></path></svg>