<?xml version="1.0" standalone="no"?><!DOCTYPE svg PUBLIC "-//W3C//DTD SVG 1.1//EN" "http://www.w3.org/Graphics/SVG/1.1/DTD/svg11.dtd"><svg t="1732801657819" class="icon" viewBox="0 0 1024 1024" version="1.1" xmlns="http://www.w3.org/2000/svg" p-id="3305" xmlns:xlink="http://www.w3.org/1999/xlink" width="200" height="200"><path d="M186.182 0h651.636Q1024 0 1024 186.182v651.636Q1024 1024 837.818 1024H186.182Q0 1024 0 837.818V186.182Q0 0 186.182 0z" fill="#8DD61B" p-id="3306"></path><path d="M713.598 637.393H310.402c-5.306 0-9.597 4.301-9.597 9.607v124.798c0 5.306 4.291 9.607 9.588 9.607h403.205c5.306 0 9.607-4.3 9.607-9.607V647c0-5.306-4.301-9.597-9.607-9.597zM588.8 733.407a12 12 0 1 1-23.999 0V711.81H459.2v21.597a12 12 0 1 1-23.999 0v-33.605c0-6.62 5.371-11.99 12.009-11.99H576.79c6.628 0 12 5.37 12 11.999v33.606z m124.798-263.4H310.402c-5.306 0-9.597 4.3-9.597 9.607V604.41c0 5.307 4.291 9.598 9.588 9.598h403.205c5.306 0 9.607-4.3 9.607-9.598V479.604c0-5.306-4.301-9.607-9.607-9.607zM588.8 566.002a12 12 0 1 1-23.999 0v-21.597H459.2v21.597a12 12 0 1 1-23.999 0v-33.606c0-6.628 5.371-12 12.009-12H576.79c6.628 0 12 5.372 12 12.01v33.587z m124.798-263.4H310.402c-5.306 0-9.597 4.3-9.597 9.597v124.798c0 5.306 4.291 9.607 9.588 9.607h403.205c5.306 0 9.607-4.301 9.607-9.607V312.199c0-5.306-4.301-9.598-9.607-9.598zM588.8 398.596a12 12 0 1 1-23.999 0V377H459.2v21.597a12 12 0 1 1-23.999 0v-33.588c0-6.628 5.371-12.008 12.009-12.008H576.79c6.628 0 12 5.38 12 12.008v33.606zM396.8 243.2L320 280.995h384L626.604 243.2H396.8z" fill="#FFFFFF" p-id="3307"></path></svg>