<?xml version="1.0" standalone="no"?><!DOCTYPE svg PUBLIC "-//W3C//DTD SVG 1.1//EN" "http://www.w3.org/Graphics/SVG/1.1/DTD/svg11.dtd"><svg t="1732678085881" class="icon" viewBox="0 0 1194 1024" version="1.1" xmlns="http://www.w3.org/2000/svg" p-id="11704" xmlns:xlink="http://www.w3.org/1999/xlink" width="233.203125" height="200"><path d="M75.152839 813.993251H1119.497595a66.551857 66.551857 0 0 0 51.19289-24.743947 91.294804 91.294804 0 0 0 23.889949-52.899886 66.551857 66.551857 0 0 0-23.889949-53.752885 69.96385 69.96385 0 0 0-51.19289-24.742946h-10.238978a682.578534 682.578534 0 0 0-121.15774-316.54532 528.144865 528.144865 0 0 0-245.728472-164.672646V156.159665a170.644633 170.644633 0 0 0-40.100914-110.919762A141.634696 141.634696 0 0 0 597.324717 0.02a139.075701 139.075701 0 0 0-104.945775 45.219903 152.726672 152.726672 0 0 0-43.514906 110.919762v20.476956A502.54892 502.54892 0 0 0 202.282565 341.309267 691.963513 691.963513 0 0 0 79.419829 657.853587h-4.26599a67.404855 67.404855 0 0 0-27.302942 8.531981 79.34983 79.34983 0 0 0-23.889948 16.210965 102.38678 102.38678 0 0 0-16.211966 24.743947c0 8.531982 0 20.476956-7.678983 32.421931a65.697859 65.697859 0 0 0 23.889949 53.753884 59.725872 59.725872 0 0 0 51.19389 20.476956zM597.324717 65.716859a95.560795 95.560795 0 0 1 63.138864 24.743947 85.321817 85.321817 0 0 1 28.15594 61.431868v4.265991a162.96565 162.96565 0 0 1-47.779898-4.265991h-85.322816a142.487694 142.487694 0 0 1-43.513907 4.265991v-4.265991A75.083839 75.083839 0 0 1 540.15884 90.459806a85.321817 85.321817 0 0 1 57.165877-24.743947zM273.953411 472.703984a413.813111 413.813111 0 0 1 91.294804-98.119789 314.839324 314.839324 0 0 1 122.864736-58.019875h11.944975a36.688921 36.688921 0 0 1 28.155939 12.797972 35.834923 35.834923 0 0 1 11.944975 23.889949 25.596945 25.596945 0 0 1 0 17.064963l-11.944975 11.944975s-7.678984 0-16.210965 8.532981a297.77436 297.77436 0 0 0-67.404855 29.009938 255.96645 255.96645 0 0 0-55.459881 40.953912 293.509369 293.509369 0 0 0-47.779897 51.19289c0 4.266991 0 8.532982-7.679984 12.798973s-8.530982 0-11.943974 8.531981-11.944974-8.531982-16.210965-8.531981a33.275929 33.275929 0 0 1-27.303942-12.798973 32.42293 32.42293 0 0 1-11.944974-24.742947s0-11.944974 7.679983-16.210965z m841.278193 403.574133H75.152839a79.34983 79.34983 0 0 0-51.19389 20.477956 91.294804 91.294804 0 0 0-23.889949 52.899887 67.404855 67.404855 0 0 0 23.889949 53.752884 64.844861 64.844861 0 0 0 51.19389 20.476956H1119.497595a85.321817 85.321817 0 0 0 51.19289-20.476956 93.854798 93.854798 0 0 0 23.889949-53.752884 64.844861 64.844861 0 0 0-23.889949-52.899887 85.321817 85.321817 0 0 0-55.459881-20.477956z" fill="#FCA800" p-id="11705"></path></svg>