<?xml version="1.0" standalone="no"?><!DOCTYPE svg PUBLIC "-//W3C//DTD SVG 1.1//EN" "http://www.w3.org/Graphics/SVG/1.1/DTD/svg11.dtd"><svg t="1732799702601" class="icon" viewBox="0 0 1024 1024" version="1.1" xmlns="http://www.w3.org/2000/svg" p-id="9324" xmlns:xlink="http://www.w3.org/1999/xlink" width="200" height="200"><path d="M874.04 441.288c80.392-80.392 80.392-210.932 0-291.328-80.396-80.392-210.936-80.392-291.328 0L149.96 582.712c-80.392 80.392-80.392 210.932 0 291.328 80.396 80.392 210.936 80.392 291.328 0L874.04 441.288z" fill="#E9E6F1" p-id="9325"></path><path d="M679.012 636.316L387.684 344.988 149.96 582.712c-80.392 80.392-80.392 210.932 0 291.328 80.396 80.392 210.936 80.392 291.328 0l237.724-237.724z" fill="#FF001F" p-id="9326"></path><path d="M599.68 424.32c80.396 80.392 115.944 175.384 79.332 211.996-36.608 36.608-131.6 1.06-211.996-79.332-80.392-80.396-115.94-175.388-79.332-211.996 36.612-36.612 131.604-1.064 211.996 79.332z" fill="#C7C4DB" p-id="9327"></path><path d="M930.76 257.288c12.168 64.648-6.736 134.016-56.72 184L441.288 874.04c-49.984 49.984-119.352 68.888-184 56.72-12.168-64.648 6.74-134.016 56.724-184L746.76 314.012c49.984-49.984 119.352-68.892 184-56.724z" fill-opacity=".1" p-id="9328"></path><path d="M680.292 295.624c24.976-24.976 24.976-65.532 0-90.508s-65.532-24.976-90.512 0l-393.148 393.152c-24.98 24.976-24.98 65.532 0 90.508 24.976 24.976 65.532 24.976 90.508 0l393.152-393.152z" fill="#FFFFFF" fill-opacity=".2" p-id="9329"></path></svg>